<?xml version="1.0" encoding="us-ascii" standalone="no"?><svg xmlns="http://www.w3.org/2000/svg" xmlns:xlink="http://www.w3.org/1999/xlink" contentStyleType="text/css" height="422px" preserveAspectRatio="none" style="width:688px;height:422px;background:#FFFFFF;" version="1.1" viewBox="0 0 688 422" width="688px" zoomAndPan="magnify"><defs/><g><rect fill="#FFFFFF" height="93.8975" style="stroke:#181818;stroke-width:1.0;" width="10" x="19" y="46.0986"/><rect fill="#FFFFFF" height="71.8975" style="stroke:#181818;stroke-width:1.0;" width="10" x="19" y="168.9448"/><rect fill="#FFFFFF" height="9" style="stroke:#181818;stroke-width:1.0;" width="10" x="19" y="369.6372"/><rect fill="#FFFFFF" height="58.9487" style="stroke:#181818;stroke-width:1.0;" width="10" x="377" y="109.9961"/><rect fill="#FFFFFF" height="28.9487" style="stroke:#181818;stroke-width:1.0;" width="10" x="377" y="240.8423"/><rect fill="#FFFFFF" height="28.9487" style="stroke:#181818;stroke-width:1.0;" width="10" x="377" y="340.6885"/><rect fill="#FFFFFF" height="70.8975" style="stroke:#181818;stroke-width:1.0;" width="10" x="560" y="269.791"/><line style="stroke:#181818;stroke-width:0.5;stroke-dasharray:5.0,5.0;" x1="24" x2="24" y1="36.0986" y2="387.6372"/><line style="stroke:#181818;stroke-width:0.5;stroke-dasharray:5.0,5.0;" x1="382" x2="382" y1="36.0986" y2="387.6372"/><line style="stroke:#181818;stroke-width:0.5;stroke-dasharray:5.0,5.0;" x1="564.5" x2="564.5" y1="36.0986" y2="387.6372"/><rect fill="#E2E2F0" height="30.0986" rx="2.5" ry="2.5" style="stroke:#181818;stroke-width:0.5;" width="38" x="5" y="5"/><text fill="#000000" font-family="sans-serif" font-size="14" lengthAdjust="spacing" textLength="24" x="12" y="25.1318">Esp</text><rect fill="#E2E2F0" height="30.0986" rx="2.5" ry="2.5" style="stroke:#181818;stroke-width:0.5;" width="38" x="5" y="386.6372"/><text fill="#000000" font-family="sans-serif" font-size="14" lengthAdjust="spacing" textLength="24" x="12" y="406.769">Esp</text><rect fill="#E2E2F0" height="30.0986" rx="2.5" ry="2.5" style="stroke:#181818;stroke-width:0.5;" width="44" x="360" y="5"/><text fill="#000000" font-family="sans-serif" font-size="14" lengthAdjust="spacing" textLength="30" x="367" y="25.1318">Cam</text><rect fill="#E2E2F0" height="30.0986" rx="2.5" ry="2.5" style="stroke:#181818;stroke-width:0.5;" width="44" x="360" y="386.6372"/><text fill="#000000" font-family="sans-serif" font-size="14" lengthAdjust="spacing" textLength="30" x="367" y="406.769">Cam</text><rect fill="#E2E2F0" height="30.0986" rx="2.5" ry="2.5" style="stroke:#181818;stroke-width:0.5;" width="147" x="491.5" y="5"/><text fill="#000000" font-family="sans-serif" font-size="14" lengthAdjust="spacing" textLength="133" x="498.5" y="25.1318">ImageProcessServer</text><rect fill="#E2E2F0" height="30.0986" rx="2.5" ry="2.5" style="stroke:#181818;stroke-width:0.5;" width="147" x="491.5" y="386.6372"/><text fill="#000000" font-family="sans-serif" font-size="14" lengthAdjust="spacing" textLength="133" x="498.5" y="406.769">ImageProcessServer</text><rect fill="#FFFFFF" height="93.8975" style="stroke:#181818;stroke-width:1.0;" width="10" x="19" y="46.0986"/><rect fill="#FFFFFF" height="71.8975" style="stroke:#181818;stroke-width:1.0;" width="10" x="19" y="168.9448"/><rect fill="#FFFFFF" height="9" style="stroke:#181818;stroke-width:1.0;" width="10" x="19" y="369.6372"/><rect fill="#FFFFFF" height="58.9487" style="stroke:#181818;stroke-width:1.0;" width="10" x="377" y="109.9961"/><rect fill="#FFFFFF" height="28.9487" style="stroke:#181818;stroke-width:1.0;" width="10" x="377" y="240.8423"/><rect fill="#FFFFFF" height="28.9487" style="stroke:#181818;stroke-width:1.0;" width="10" x="377" y="340.6885"/><rect fill="#FFFFFF" height="70.8975" style="stroke:#181818;stroke-width:1.0;" width="10" x="560" y="269.791"/><rect fill="#EEEEEE" height="3" style="stroke:#EEEEEE;stroke-width:1.0;" width="681" x="0" y="66.573"/><line style="stroke:#000000;stroke-width:1.0;" x1="0" x2="681" y1="66.573" y2="66.573"/><line style="stroke:#000000;stroke-width:1.0;" x1="0" x2="681" y1="69.573" y2="69.573"/><rect fill="#EEEEEE" height="22.9487" style="stroke:#000000;stroke-width:2.0;" width="54" x="313.5" y="56.0986"/><text fill="#000000" font-family="sans-serif" font-size="13" font-weight="bold" lengthAdjust="spacing" textLength="36" x="319.5" y="72.2925">Setup</text><polygon fill="#181818" points="365,105.9961,375,109.9961,365,113.9961,369,109.9961" style="stroke:#181818;stroke-width:1.0;"/><line style="stroke:#181818;stroke-width:1.0;" x1="29" x2="371" y1="109.9961" y2="109.9961"/><text fill="#000000" font-family="sans-serif" font-size="13" lengthAdjust="spacing" textLength="329" x="36" y="105.2412">Setup(SSID,PWD,IMAGE_PROCESSING_END_POINT)</text><polygon fill="#181818" points="40,164.9448,30,168.9448,40,172.9448,36,168.9448" style="stroke:#181818;stroke-width:1.0;"/><line style="stroke:#181818;stroke-width:1.0;" x1="34" x2="381" y1="168.9448" y2="168.9448"/><text fill="#000000" font-family="sans-serif" font-size="13" lengthAdjust="spacing" textLength="91" x="46" y="164.1899">Setup_Ok / Fail</text><rect fill="#EEEEEE" height="3" style="stroke:#EEEEEE;stroke-width:1.0;" width="681" x="0" y="197.4192"/><line style="stroke:#000000;stroke-width:1.0;" x1="0" x2="681" y1="197.4192" y2="197.4192"/><line style="stroke:#000000;stroke-width:1.0;" x1="0" x2="681" y1="200.4192" y2="200.4192"/><rect fill="#EEEEEE" height="22.9487" style="stroke:#000000;stroke-width:2.0;" width="108" x="286.5" y="186.9448"/><text fill="#000000" font-family="sans-serif" font-size="13" font-weight="bold" lengthAdjust="spacing" textLength="90" x="292.5" y="203.1387">Capture Image</text><polygon fill="#181818" points="365,236.8423,375,240.8423,365,244.8423,369,240.8423" style="stroke:#181818;stroke-width:1.0;"/><line style="stroke:#181818;stroke-width:1.0;" x1="24" x2="371" y1="240.8423" y2="240.8423"/><text fill="#000000" font-family="sans-serif" font-size="13" lengthAdjust="spacing" textLength="53" x="31" y="236.0874">Capture()</text><polygon fill="#181818" points="548,265.791,558,269.791,548,273.791,552,269.791" style="stroke:#181818;stroke-width:1.0;"/><line style="stroke:#181818;stroke-width:1.0;" x1="382" x2="554" y1="269.791" y2="269.791"/><text fill="#000000" font-family="sans-serif" font-size="13" lengthAdjust="spacing" textLength="74" x="389" y="265.0361">SendImage()</text><line style="stroke:#181818;stroke-width:1.0;" x1="570" x2="612" y1="298.7397" y2="298.7397"/><line style="stroke:#181818;stroke-width:1.0;" x1="612" x2="612" y1="298.7397" y2="311.7397"/><line style="stroke:#181818;stroke-width:1.0;" x1="571" x2="612" y1="311.7397" y2="311.7397"/><polygon fill="#181818" points="581,307.7397,571,311.7397,581,315.7397,577,311.7397" style="stroke:#181818;stroke-width:1.0;"/><text fill="#000000" font-family="sans-serif" font-size="13" lengthAdjust="spacing" textLength="92" x="577" y="293.9849">ProcessImage()</text><polygon fill="#181818" points="398,336.6885,388,340.6885,398,344.6885,394,340.6885" style="stroke:#181818;stroke-width:1.0;"/><line style="stroke:#181818;stroke-width:1.0;stroke-dasharray:2.0,2.0;" x1="392" x2="564" y1="340.6885" y2="340.6885"/><text fill="#000000" font-family="sans-serif" font-size="13" lengthAdjust="spacing" textLength="154" x="404" y="335.9336">{item_type,quantity,mixed}</text><polygon fill="#181818" points="40,365.6372,30,369.6372,40,373.6372,36,369.6372" style="stroke:#181818;stroke-width:1.0;"/><line style="stroke:#181818;stroke-width:1.0;stroke-dasharray:2.0,2.0;" x1="34" x2="381" y1="369.6372" y2="369.6372"/><text fill="#000000" font-family="sans-serif" font-size="13" lengthAdjust="spacing" textLength="194" x="46" y="364.8823">{status,item_type,quantity,mixed}</text><!--SRC=[ZP7Dgi8m48NtUOfPAaJS2n74Lkd2jjWBBaEmWmIjrcOgYlZkDz7w4wlW8ekScVFDcKG8o93g4eHWQadwe0WXD2Mp1tf36Ai21hUMJfP50KyN0Ozcesaeqtao3gqMJsKO1p9DelYl-uHO9ylHOpBcS9Rgu0rL9clemqJfpMktC_jM8QnOKbqXH8LQeGliXspAdUxxM8_Q9BWoqcgtH6Coh0vOkJpR_Ahx22zBsyVQqhS1pVK-uvFniSrP4nQIJYNoVQssfEd42tt4_FAQxKESzhQF1pyRKbGR_XEw_GN_]--></g></svg>